<svg width="13" height="8" viewBox="0 0 13 8" fill="none" xmlns="http://www.w3.org/2000/svg">
<path d="M6.4932 2.47235L1.99258 6.98657C1.87474 7.10441 1.73651 7.16333 1.57787 7.16333C1.41924 7.16333 1.28101 7.10441 1.16316 6.98657C1.05439 6.87779 1 6.74182 1 6.57866C1 6.41549 1.05439 6.27952 1.16316 6.17075L5.88134 1.45258C6.05356 1.28035 6.25979 1.19423 6.5 1.19423C6.74021 1.19423 6.94644 1.28035 7.11867 1.45258L11.8368 6.17075C11.9456 6.27952 12 6.41549 12 6.57866C12 6.74182 11.9456 6.87779 11.8368 6.98657C11.719 7.10441 11.5808 7.16333 11.4221 7.16333C11.2635 7.16333 11.1253 7.10441 11.0074 6.98657L6.4932 2.47235Z" fill="#241A12" stroke="#241A12" stroke-width="0.497263"/>
</svg>
